#!OML:ASF Y:\EmotionMaleHayes\Project 1\Capture day 1\Session 1\Male1.ASF
:FULLY-SPECIFIED
:DEGREES
379
root 28.3536 15.7056 -11.7654 -0.751864 -26.8816 -372.143
lowerback 27.7671 6.98092 0.142819
upperback 7.13244 8.53477 -2.40837
thorax -6.79381 4.00797 -5.49559
lowerneck -18.712 6.08037 7.36609
upperneck 15.3294 8.00905 -8.72274
head 8.51407 3.33957 -3.09985
rclavicle -1.82882e-014 1.43125e-014
rhumerus -2.59802 -14.4159 -37.3027
rradius 70.7214
rwrist -46.6622
rhand -20.7391 -39.9418
rfingers 7.12502
rthumb 5.62622 -69.8471
lclavicle -1.82882e-014 1.43125e-014
lhumerus -70.7263 12.9548 46.9285
lradius 15.9247
lwrist -54.2582
lhand 7.4863 -13.2929
lfingers 7.12502
lthumb 32.7385 13.7621
rfemur -12.7844 -13.4372 34.3666
rtibia 51.7482
rfoot -32.3222 -15.1982
rtoes 4.54453
lfemur -57.6341 9.22196 -7.37156
ltibia 47.8345
lfoot -1.29891 5.8518
ltoes 5.92359
380
root 28.4702 15.7641 -11.8262 -0.808241 -26.0837 -372.284
lowerback 28.0939 7.01118 -0.468708
upperback 7.25382 8.38809 -2.40838
thorax -6.9142 3.93317 -5.1438
lowerneck -18.6598 6.0237 7.4976
upperneck 15.1812 7.82417 -8.41355
head 8.42929 3.29549 -3.0424
rclavicle -1.59028e-015 -1.11319e-014
rhumerus -1.78051 -10.2962 -40.1907
rradius 70.5543
rwrist -46.9212
rhand -19.1623 -40.1337
rfingers 7.12502
rthumb 7.14844 -69.9929
lclavicle -1.59028e-015 -1.11319e-014
lhumerus -68.7106 11.8552 48.6372
lradius 16.9359
lwrist -59.1586
lhand 9.27354 -12.8811
lfingers 7.12502
lthumb 34.437 13.8046
rfemur -12.3345 -15.0721 33.4996
rtibia 50.4778
rfoot -31.2921 -14.0058
rtoes 3.38312
lfemur -57.1556 10.3932 -5.6554
ltibia 51.4914
lfoot -1.31504 5.42469
ltoes 7.83268
381
root 28.5876 15.8307 -11.8789 -0.911027 -25.104 -372.312
lowerback 28.5015 7.02125 -1.00705
upperback 7.31847 8.22394 -2.48218
thorax -7.11147 3.84826 -4.92114
lowerneck -18.7852 6.01786 7.46365
upperneck 15.4181 7.72813 -7.89717
head 8.49732 3.29421 -2.87331
rclavicle 3.65764e-014 6.20208e-014
rhumerus -1.21281 -6.28131 -42.9851
rradius 70.1902
rwrist -46.9818
rhand -17.0953 -40.5739
rfingers 7.12502
rthumb 9.1434 -70.3557
lclavicle 3.65764e-014 6.20208e-014
lhumerus -66.5697 10.0089 50.738
lradius 18.2983
lwrist -61.5371
lhand 11.706 -14.0633
lfingers 7.12502
lthumb 36.7425 12.0673
rfemur -11.6898 -17.3183 32.2226
rtibia 49.0127
rfoot -30.018 -12.273
rtoes 2.44744
lfemur -56.8114 11.9057 -4.2865
ltibia 55.3535
lfoot -1.59474 4.90401
ltoes 7.91604
382
root 28.7061 15.909 -11.9245 -1.15597 -23.7729 -371.933
lowerback 29.1116 6.96153 -1.63827
upperback 7.26661 7.9102 -2.76132
thorax -7.52193 3.68813 -4.85726
lowerneck -18.8793 5.9908 7.50185
upperneck 15.7304 7.57518 -7.32003
head 8.58207 3.27793 -2.70363
rclavicle 1.27222e-014 1.43125e-014
rhumerus -1.15273 -2.10296 -45.5847
rradius 69.91
rwrist -46.9447
rhand -15.296 -40.7257
rfingers 7.12502
rthumb 10.8793 -70.4238
lclavicle 1.27222e-014 1.43125e-014
lhumerus -64.5057 7.17789 53.3838
lradius 19.9778
lwrist -61.6694
lhand 13.0423 -15.5748
lfingers 7.12502
lthumb 38.0058 10.2228
rfemur -10.4993 -19.2684 30.5873
rtibia 46.7392
rfoot -28.4191 -10.693
rtoes 2.16872
lfemur -55.8174 11.9672 -2.91041
ltibia 58.2329
lfoot -1.67995 5.15877
ltoes 5.46418
383
root 28.7849 15.9946 -11.9698 -1.13451 -22.2785 -373.754
lowerback 29.8458 6.65392 -1.08153
upperback 7.49895 7.71319 -2.15149
thorax -7.64132 3.58126 -4.48699
lowerneck -19.0893 6.15012 7.46688
upperneck 15.9205 7.74402 -7.04771
head 8.68288 3.37602 -2.57724
rclavicle 8.74653e-015 1.43125e-014
rhumerus -0.656538 1.99721 -48.1849
rradius 69.1504
rwrist -46.6133
rhand -14.3063 -40.2117
rfingers 7.12502
rthumb 11.8338 -69.8574
lclavicle 8.74653e-015 1.43125e-014
lhumerus -62.6254 6.12241 54.6264
lradius 21.2986
lwrist -63.1728
lhand 12.2609 -15.7084
lfingers 7.12502
lthumb 37.2674 10.2864
rfemur -9.08035 -20.7839 31.3483
rtibia 44.8921
rfoot -26.9372 -9.35723
rtoes 2.65009
lfemur -54.1707 12.3639 1.03725
ltibia 61.0042
lfoot -1.42828 4.94737
ltoes 3.35648
384
root 28.8249 16.0761 -12.0132 -0.659771 -20.7644 -379.786
lowerback 31.5334 5.73495 3.18023
upperback 7.73797 7.98964 -0.521731
thorax -7.82016 3.65363 -5.3072
lowerneck -19.4553 6.14515 7.43461
upperneck 16.433 7.64943 -6.5703
head 8.89169 3.36678 -2.41549
rclavicle -1.82882e-014 -5.725e-014
rhumerus -0.623768 6.09107 -50.8496
rradius 68.615
rwrist -46.2468
rhand -14.2347 -39.6513
rfingers 7.12502
rthumb 11.9028 -69.293
lclavicle -1.82882e-014 -5.725e-014
lhumerus -60.9316 4.26032 56.0391
lradius 22.8322
lwrist -61.9031
lhand 10.4654 -15.1948
lfingers 7.12502
lthumb 35.5676 11.2268
rfemur -6.63205 -22.1286 36.5281
rtibia 43.0897
rfoot -25.4457 -8.44621
rtoes 1.53914
lfemur -51.613 13.4184 9.9289
ltibia 63.7659
lfoot -0.961756 3.80913
ltoes 4.03529
385
root 29.0457 16.1997 -12.0314 -1.86128 -18.7488 -370.246
lowerback 30.3718 6.61126 -4.89334
upperback 7.49357 6.38527 -3.16258
thorax -8.23624 2.97917 -3.07824
lowerneck -19.9179 6.25669 7.32463
upperneck 16.8404 7.76483 -6.29194
head 9.10453 3.42955 -2.2757
rclavicle 7.63333e-014 1.11319e-014
rhumerus -0.635096 9.68409 -53.7396
rradius 67.8428
rwrist -44.9286
rhand -14.6618 -38.675
rfingers 7.12502
rthumb 11.4909 -68.3401
lclavicle 7.63333e-014 1.11319e-014
lhumerus -59.0769 3.03805 56.4351
lradius 24.6223
lwrist -58.8248
lhand 10.9224 -17.1605
lfingers 7.12502
lthumb 36.0006 9.15588
rfemur -9.61907 -24.8139 24.7851
rtibia 44.7224
rfoot -23.3765 -5.81324
rtoes -1.87298
lfemur -51.7057 9.88955 1.11325
ltibia 64.6982
lfoot -1.59811 5.84614
ltoes 5.20008
386
root 29.1594 16.2901 -12.0551 -1.66862 -17.186 -371.773
lowerback 31.0533 6.18368 -3.80668
upperback 7.60177 6.16297 -2.88111
thorax -8.36415 2.86049 -3.34423
lowerneck -20.2111 6.18736 7.2007
upperneck 16.8833 7.60526 -5.91644
head 9.13715 3.38187 -2.14416
rclavicle 1.11319e-014 9.54166e-015
rhumerus -0.835538 13.0974 -56.6346
rradius 67.201
rwrist -43.456
rhand -16.033 -37.7776
rfingers 7.12502
rthumb 10.1683 -67.5119
lclavicle 1.11319e-014 9.54166e-015
lhumerus -57.4457 0.934938 57.6742
lradius 26.7803
lwrist -55.0802
lhand 9.01614 -17.3891
lfingers 7.12502
lthumb 34.1926 9.3517
rfemur -9.22871 -26.5263 24.7387
rtibia 44.6095
rfoot -20.9096 -3.565
rtoes -4.97984
lfemur -49.9299 9.20621 4.96239
ltibia 66.3906
lfoot -1.62796 6.05643
ltoes 5.83398
387
root 29.3176 16.4068 -12.0808 -0.731569 -16.1362 -372.292
lowerback 31.0155 5.98022 -3.44568
upperback 7.40793 6.01031 -2.99936
thorax -8.52389 2.78648 -3.63471
lowerneck -20.7242 6.17592 6.76936
upperneck 17.1065 7.57219 -5.35738
head 9.25954 3.38798 -1.87626
rclavicle 4.13472e-014 -4.29375e-014
rhumerus -1.17508 16.7235 -59.1342
rradius 66.9424
rwrist -42.0379
rhand -17.159 -37.1929
rfingers 7.12502
rthumb 9.08196 -66.9774
lclavicle 4.13472e-014 -4.29375e-014
lhumerus -56.0446 -1.5846 58.8569
lradius 29.3187
lwrist -49.6713
lhand 6.22014 -18.3038
lfingers 7.12502
lthumb 31.5331 8.99468
rfemur -10.775 -28.0274 23.8901
rtibia 45.8026
rfoot -18.2822 -0.260654
rtoes -7.0905
lfemur -48.7523 8.69121 7.59871
ltibia 67.6482
lfoot -1.65079 6.87169
ltoes 6.46735
388
root 29.4794 16.5186 -12.1053 0.220223 -15.1708 -373.183
lowerback 31.0622 5.79151 -2.73321
upperback 7.21894 5.99666 -2.96276
thorax -8.69876 2.77056 -4.00863
lowerneck -21.3751 6.06294 6.4896
upperneck 17.5242 7.39315 -4.96937
head 9.47991 3.31457 -1.70942
rclavicle 2.54444e-014 -3.18055e-014
rhumerus -1.53879 20.3452 -61.2193
rradius 66.6387
rwrist -39.824
rhand -16.7316 -36.1639
rfingers 7.12502
rthumb 9.49429 -65.93
lclavicle 2.54444e-014 -3.18055e-014
lhumerus -54.7899 -3.88718 59.8316
lradius 32.2469
lwrist -43.3493
lhand 3.75173 -19.0077
lfingers 7.12502
lthumb 29.1786 8.72516
rfemur -12.273 -29.0638 23.5182
rtibia 47.099
rfoot -15.5072 3.11645
rtoes -9.55049
lfemur -47.3562 8.2752 10.652
ltibia 68.5948
lfoot -1.38718 7.74862
ltoes 7.91559
389
root 29.6387 16.6243 -12.1281 1.30436 -14.4233 -374.263
lowerback 30.9071 5.72779 -2.02949
upperback 7.02548 6.16501 -2.79523
thorax -8.79005 2.8404 -4.27874
lowerneck -21.8412 5.9698 6.44279
upperneck 17.5177 7.29847 -5.18384
head 9.56119 3.23449 -1.78165
rclavicle -1.90833e-014 2.54444e-014
rhumerus -1.84559 23.9198 -63.227
rradius 66.6581
rwrist -38.9376
rhand -17.7234 -35.8109
rfingers 7.12502
rthumb 8.53728 -65.6183
lclavicle -1.90833e-014 2.54444e-014
lhumerus -53.6081 -5.54214 60.352
lradius 35.24
lwrist -37.1272
lhand 0.33178 -19.4754
lfingers 7.12502
lthumb 25.9081 8.77934
rfemur -13.7564 -29.3054 23.5658
rtibia 48.0757
rfoot -12.4697 6.58151
rtoes -7.69164
lfemur -45.736 8.13637 13.9751
ltibia 69.1526
lfoot -0.996287 8.63709
ltoes 10.1669
390
root 29.8043 16.7253 -12.1532 2.57288 -13.6992 -375.423
lowerback 30.5863 5.63581 -1.30314
upperback 6.79161 6.31822 -2.56769
thorax -8.85057 2.90327 -4.47456
lowerneck -22.4742 5.82654 6.12401
upperneck 17.8063 7.16719 -5.13046
head 9.75148 3.14379 -1.71964
rclavicle -5.40694e-014 3.02153e-014
rhumerus -2.15579 26.782 -65.6838
rradius 66.1277
rwrist -37.4563
rhand -18.3987 -36.2493
rfingers 7.12502
rthumb 7.88553 -66.0822
lclavicle -5.40694e-014 3.02153e-014
lhumerus -52.6987 -7.16109 60.9101
lradius 38.7863
lwrist -29.2924
lhand -2.59576 -19.629
lfingers 7.12502
lthumb 23.1019 9.00604
rfemur -15.6007 -29.9466 23.5599
rtibia 49.2899
rfoot -9.17933 10.8361
rtoes -5.77686
lfemur -44.2171 8.05909 17.2208
ltibia 69.4839
lfoot -0.671368 9.6717
ltoes 11.8097
391
root 29.9868 16.8021 -12.1416 3.15715 -12.8476 -374.805
lowerback 30.1638 5.68042 -1.87468
upperback 6.74579 6.20842 -2.72107
thorax -8.7479 2.86839 -4.24747
lowerneck -22.8386 5.92335 5.6956
upperneck 17.9168 7.49226 -5.40199
head 9.86985 3.22281 -1.68775
rclavicle 3.18055e-015 0
rhumerus -2.60352 29.849 -67.8644
rradius 66.3002
rwrist -36.9518
rhand -19.0061 -37.3155
rfingers 7.12502
rthumb 7.29925 -67.1696
lclavicle 3.18055e-015 0
lhumerus -51.9922 -8.70611 61.4234
lradius 42.5675
lwrist -20.8982
lhand -5.52435 -20.4327
lfingers 7.12502
lthumb 20.2895 8.52753
rfemur -16.6102 -30.8545 20.9327
rtibia 50.3032
rfoot -5.91212 15.5512
rtoes -5.07646
lfemur -42.4663 7.01817 18.0907
ltibia 69.4007
lfoot -0.810046 11.3678
ltoes 12.9662
392
root 30.1593 16.8747 -12.1282 4.17302 -12.2479 -375.501
lowerback 29.6361 5.78704 -1.40384
upperback 6.54589 6.53456 -2.54544
thorax -8.67748 3.02099 -4.39466
lowerneck -23.1954 5.77263 5.24549
upperneck 18.1537 7.42708 -5.38505
head 9.99487 3.15286 -1.61301
rclavicle -3.18055e-015 1.11319e-014
rhumerus -2.77508 32.4726 -69.6723
rradius 66.0752
rwrist -37.312
rhand -19.043 -37.166
rfingers 7.12502
rthumb 7.2636 -67.0213
lclavicle -3.18055e-015 1.11319e-014
lhumerus -51.3606 -10.5891 62.108
lradius 46.7187
lwrist -11.5951
lhand -8.47367 -20.4288
lfingers 7.12502
lthumb 17.453 8.80767
rfemur -16.9944 -29.8687 20.3102
rtibia 49.7183
rfoot -2.30481 19.0533
rtoes -6.17586
lfemur -40.5333 6.85546 20.3433
ltibia 69.0925
lfoot -1.08599 12.9146
ltoes 12.8396
393
root 30.322 16.9245 -12.0938 4.5933 -11.4977 -374.267
lowerback 29.0959 6.11869 -2.62768
upperback 6.44779 6.59247 -2.84472
thorax -8.62011 3.07415 -4.01735
lowerneck -23.3811 5.65418 5.20814
upperneck 18.3689 7.32659 -5.57864
head 10.1067 3.074 -1.68796
rclavicle -6.36111e-015 -1.27222e-014
rhumerus -2.99989 34.7715 -71.3681
rradius 65.9137
rwrist -37.8658
rhand -19.4614 -37.1849
rfingers 7.12502
rthumb 6.85976 -67.0538
lclavicle -6.36111e-015 -1.27222e-014
lhumerus -50.8314 -12.5236 62.5245
lradius 51.2152
lwrist -2.10822
lhand -11.1228 -20.8064
lfingers 7.12502
lthumb 14.9022 8.63758
rfemur -16.7961 -29.0749 17.1653
rtibia 49.3971
rfoot -1.39554 18.3102
rtoes -7.18241
lfemur -38.4575 5.9266 20.1627
ltibia 68.3362
lfoot -1.68463 14.047
ltoes 17.3887
